<svg xmlns="http://www.w3.org/2000/svg" height="16" width="16" version="1.1" viewBox="0 0 4.2333332 4.2333335"><g transform="translate(0 -292.77)"><path style="paint-order:normal" d="m7 0l-0.5508 2.207a6 6 0 0 0 -1.4453 0.6035l-1.9531-1.1738-1.4141 1.4141 1.1719 1.9512a6 6 0 0 0 -0.5977 1.4453l-2.2109 0.5527v2l2.207 0.5508a6 6 0 0 0 0.6035 1.4452l-1.1738 1.953 1.4141 1.414 1.9512-1.172a6 6 0 0 0 1.4453 0.598l0.5527 2.211h2l0.5508-2.207a6 6 0 0 0 1.4452 -0.604l1.953 1.174 1.414-1.414-1.172-1.951a6 6 0 0 0 0.598 -1.4453l2.211-0.5527v-2l-2.207-0.5508a6 6 0 0 0 -0.604 -1.4453l1.174-1.9531-1.414-1.4141-1.951 1.1719a6 6 0 0 0 -1.4453 -0.5977l-0.5527-2.2109h-2zm1 5a3 3 0 0 1 3 3 3 3 0 0 1 -3 3 3 3 0 0 1 -3 -3 3 3 0 0 1 3 -3z" transform="matrix(.26458 0 0 .26458 0 292.77)" fill="#cdd1d7"/></g></svg>
